<?xml version="1.0" encoding="UTF-8"?>
<svg version="1.1" viewBox="0 0 1604 948" width="50" height="50" xmlns="http://www.w3.org/2000/svg">
<path transform="translate(0)" d="m0 0h1604v948h-1604z" fill="#FCFCFC"/>
<path transform="translate(930,84)" d="m0 0 16 3 12 5 10 6 2 3-7 1 6 6 1 5-1 1 16 7 11 7 11 10 9 12 8 14 4 11-1 16-3 13-3 3-13-11-10-8-10-9 4 6 4 4-2 9-11 27-7 16-2 2-7-8-4-4 10 14 11 21v-13l12-30 5-14 2-10h2v2l5 2 5 4 5 3-1 6-10 18-13 23-8 10-4 9-12 10-16 8-3 1h-7l-5-4-5-16-4-10-8-12-8-8-6-4 7 8 8 11 2 6-9-3-8 14-11 20-4 6h-8l-2-1v-6l16-32 4-9-10 4h-23l-10 5-5 5-2 4v10l1 4v15l8 2 23 4 27 4 36 8 31 9h8l2-1-3-9-2-2 1-4 12-5 9-2h7l4 1-1 3-2 1 3 4 3 7 7 3-1-7 5-5 16-9 6-7 3-2 12-2 1 4 2-1-3-7-1-6-8-4-7-4-5-4-6-9-6-14v-8l3-5 12 1 33 15 7 3-22-12-12-6-5-2 2-7 9-10 10-7 19-11 11-7 5 1 26 30 11 12 9 10 11 12 3 5-5-2-16-11-19-14-10-7 4 6 29 29 9 11 11 12 31 31 7 8 13 14 9 11 12 14 15 20 10 15 6 16 1 4v7l-2 3-16-5-6-1h-3l8 3-4 4-10 4-12 7-10 8-12 13-18 20-12 14-7 7-2 4 10-4 19-3 12-1h20l23 2 21 4 21 7 10 4v3l-9 3-17 5-16 6 27-6 10-1 11 6 14 11 15 14 11 12 11 15 9 16 8 17 6 21 3 21v36l-3 22-6 21-8 19-9 15-12 16-7 8h-2l-1 3-8 7-13 10-16 9-16 8-2 2 35-1h103v2l52 1 13 1v1l-96 4-80 4-11 1 39 3 63 5 55 3 35 2 2 2-72 2h-52l-95-1h-938l-146 1-59-1-1-2 21-2 132-11 32-3-13-1-90-4-65-4v-1h30v-1l62-1h43l55 1 11 1v-2l-5-2-23-13-12-9-10-9-11-11-10-13-9-15-8-16-6-15-6-20-4-20-1-11v-28l3-20 5-20 8-20 10-19 12-17 11-13 9-10 11-9 13-9 18-10 19-8 19-6 20-4 9-1h31l21 3 15 4 22 8 16 8 14 8 17 12 4 3 1 8-4 9h2l2-5 5-8h2l3-10 5-8 7-6 19-10 7-6v-2l-8-4-12-11-2-5-8 2-20 6-9-4-17-12-7-5h-14l-6-4-5-8 2-6 4-4 3-1 19-1-16-8-5-3-4-6-21-12-21-13-19-13-15-10 4 5 10 10 20 15 5 4 1 4-3 1-60-11-27-5-4-1 1 4-2 1-5-3-11-4-1-3-12-2-53-11-11-2-2-6v-6l-14 3h-7l-2-5-3-16-1-13 1-1 23-1 10-2 4-7 15 4 48 10 20 5 1-1-13-11-16-11-14-10-19-14-8-6-4-8v-3l10 1 48 8 30 8 33 10 9 2h3v-1l-12-3v-1h47l10-1h18l18 2 4 2 2-1 6 3 4-16 4-9 7-11 14-15 16-16 13-10 10-7 19-12 24-13 18-9-10 4-7 1-2-2-38 18-13 6-2-1 20-13 20-15 13-11 13-10 8-8 10-7 20-12 22-12 52-28 13-5h11l10 5 12 11 13 16 7 11 5 2 6-1v-3l4 2 8 8 8 13 4 7 2-2 6-14 10-15 9-10 9-9 17-12 15-10 5-5z" fill="#091522"/>
<path transform="translate(1067,596)" d="m0 0h2l-2 8-7 19-4 20-2 19v24l3 24 6 22 8 21 9 17 11 16 13 15 10 9 14 10 16 9 8 5-1 2h-651l1-3 24-12 11-7 14-10 15-14 10-11 10-14 8-14 6-12 9-28 3-17 2-30 18-2 2 1 2 7 2 4 4 2 1 5-8 7-6 5-1 7 3 7h2l1-2 23-8 3 1-5 3-20 10-7 3-12 6-5 5 3 6 21 21 7 8 13 14 8 4 22-7 29-9 33-8 49-8 29-3 18-1h25l26 2 15 3 2 2-29-1h-13v3l-13 2-4 2-16 2-6 2 111 1 68 2h32l13-9 3-3-1-7-8-16-7-16-6-18-2-17 2-10h2l1 12 5-31 4-14 6-15 9-15z" fill="#FDFDFD"/>
<path transform="translate(1225,551)" d="m0 0 2 1-6 9 1 3 13 4 15 4 17 7 14 8 14 11 7 7 8 10 9 14 5 11 6 20 2 17-1 19-4 15-5 12-6 11-8 10-9 10-13 10-18 10-18 6-14 3-19 1-17-2-14-4-12-5-16-9-15-13-10-11-8-13-7-15-5-15-2-10v-23l2-15 7-15h3v8l-4 5-1 5 5 5 6 2 3-3 5-1 4 1 1 2 3 1v-2l4-1v2h2v-5l-6-4 3-6 4-2 2-6 4 1 3 11v6l-7 7v10l-3 7-3 5 2 2 13-2 3-3 2 1 1 6 1 1v2l-4 1 1 3h4l1-2 5 7h2l3 4 3 2 5 2 1 4 4 2 8 5 4 1v2l9 1v2h9l8-2 9-3 12-8 1-3h2v-2h2v-2h2l-1-3 4-8v-2h2l1-7 1-5 1-8v-16l-3-1-2-6-2-1v-3l-5-2-6-5-4-4-4-1-1-4h-4v3l-5-2-2-3h2v-4h-2l-2-7 1-8h-2v-7l-4-6-2-5-2-1v-2h-2l-6-8-1-5v-10l3-3h3l6-7z" fill="#040A14"/>
<path transform="translate(413,561)" d="m0 0h29l18 4 12 5 8 5v3l-87 1-18 2-3 9-1 2 10-2h25l5 2-1 10-3 7-12 6-10 8-8 9-6 12-3 11v20l2 10 4 11 9 13 9 8 16 8 16 4 9 1h37l2 1 2 8 10-1 11-9 8-7 11-1h9l-1 5-9 11-12 12-10 8-16 10-20 8-18 4h-23l-16-3-13-5-13-7-11-9-10-9-9-11-8-11-8-17-4-13-2-9v-28l4-18 6-15 8-14 8-10 11-12 13-11 14-8 18-6z" fill="#FDFDFD"/>
<path transform="translate(327,845)" d="m0 0h7l-2 5-9 3-9 1-1 2h11l6-1 9 2h3l1-2 2 1 12-2h35l64 1h19l19-1h27l17 1h11l2 1 1-2 5 1 26-1h34l8 1 21-1h482l8 1h119l9-1h13l7-1 1-3h18l-1 3 9 2h25l4 1 11 1v2l3-1 4 1-1 4h-55v-1h-3v1l-960 1-146 1-59-1-1-2 21-2 132-11 28-1z" fill="#040A13"/>
<path transform="translate(1225,551)" d="m0 0 2 1-6 9 1 3 13 4 15 4 17 7 14 8 14 11 7 7 8 10 9 14 5 11 6 20 2 17-1 19-4 15-5 12-6 11-8 10-9 10-13 10-18 10-18 6-14 3-19 1-17-2-14-4-12-5-16-9-15-13-10-11-8-13-7-15-5-15-2-10v-23l2-15 7-15h3v8l-4 5-1 5 5 5 6 2 3-3h3l-2 5-5 3-5 12-2 5v12l2 6 3 1 13-3 4 14 9 16 11 12 8 7 14 8 15 5 20 2 19-2 16-5 14-7 10-8 6-5 8-10 8-16 4-13 1-7v-26l-2-11-4-13-7-13-11-13-10-8-14-8-17-6-14-3-4-5-5-12-1-4v-7l6-7z" fill="#FDFDFD"/>
<path transform="translate(906,455)" d="m0 0 3 1v2l-25 15-13 9-7 7-5 8-2 8 1 8 7 8 11 9 13 11 20 18 5 4 7 11 2 2 1 8 4 6 1 4v10l-3 6h-2l-2-15-4-10-7-9-12-8-3-1h-10l-11 5-2-1-4-16-7-13-8-8-11-7-11-3h-12l-13 4-11 7-8 9-5 10-2 11 8-14 7-8 9-6 11-3h14l9 2 10 6 7 7 6 11 2 9v13l-4 10-6 9-5 5-7 2h-5v-2l-12 2-5-2-2-4 3-1h6l14-7 2-4 5-9v-14l-5-10-3-3-10-4-4-1h-10l-9 6-4 2-6 15 1 8 3 10-1 3-4-1v2l-3 1 1 7-1 3 1 2 2-1v3h-2l1 2v7l-3 9h-2l-2-5-2-11-7-12-4-13-3-10-3-5-1-11 1-27 2-9 6-10 10-8 9-3 9-1h13l2 3-2 4 3 1h7l4-2 2 2h3l3 1 4-4 4 1-1-3 2-7 4-8 4-6h2l2-4 4-4 4-2 4-5 9-3v-2l19-8z" fill="#040A14"/>
<path transform="translate(520,836)" d="m0 0h631l-1 2-8 2-3 2-7-1-21 3-19 1h-19l-8 1-3-1h-9l-19 1-24-1-9 1h-61l-14-1-86 1h-19l-60-1-16 1-4-1-14 1-18-1-48 1-12-1h-24l-8 1-5-1h-44l-11-1h-25l-4-2h-5l-4-2z" fill="#040A13"/>
<path transform="translate(413,486)" d="m0 0h31l21 3 15 4 22 8 16 8 14 8 17 12 4 3 1 8-4 9-1-4-1-3-3-1-5-5-4-3v-2l-4-1-2-1v-2l-14-7-8-5-5-2-7-2-3-2-7-2v-2l-4 1-11-4-11-1-7-2h-20l-6-2v2h-13l-13 1-7 2-5-1-1 2-12 2-20 6-15 6-14 8-11 8h-3v2l-8 7-6 7h-2l-2 4-8 13-7 10-5 10-7 15-6 18-2 7v7l-2 6-1 10v22l-1 3 3 7-1 7 1 9 2 7 1 9 3 11 4 13 7 15 1 6h2l4 10 7 11 12 14 8 8 6 4 7 7 1 4 7 2 2 1 1 5-6-2-12-8-11-9-15-15-10-13-9-15-8-16-6-15-6-20-4-20-1-11v-28l3-20 5-20 8-20 10-19 12-17 11-13 9-10 11-9 13-9 18-10 19-8 19-6 20-4z" fill="#040A14"/>
<path transform="translate(425,551)" d="m0 0 17 2 7 2 11 5 7 6-4 1-15-4-6-1h-29l-18 4-13 5-12 7-14 12-12 13-9 14-8 16-5 18-1 6v28l4 17 8 18 9 14 9 10 6 7 14 11 10 6 11 5 15 4 7 1h23l18-4 15-6 12-6 14-10 13-12 10-11 3-5 1-5 5-5 2-5 3-5 4-16 4-2 2 4 1 6-2 7h-2l-2 5-1 2h-2l-1 6-4 8-3 5h-2l-1 4h-2l-2 6-5 5h-2l-2 4-8 7-4 3h-3v2l-7 4-1 2-6 3-15 8-11 5-9 3-15 3-8 1-14-2-20-6-16-8-11-7-8-6-3-2v-2h-2v-2l-4-2-2-4-4-2-11-15-5-7-5-11-6-16-3-12 1-24 2-18 2-7 5-13 2-1v-3l2-2 6-11 7-9 2-3h2l1-3 3-3h2l2-4 4-4 4-2 1-2h3l1-3 4-2 2-3 7-3 10-5 9-3 20-4z" fill="#040A14"/>
<path transform="translate(996,440)" d="m0 0h7l41 7 9 6v11l-7 25-10 30-9 29-7 21-2 3-5-1-5-6-8-19-2-6v-11l10-33 11-39-1-3-15-9-7-4z" fill="#FDFDFD"/>
<path transform="translate(1225,553)" d="m0 0h5l2 6 6 2 2 2 1 5 10-2 2 4 8 3v2l5 1 9 5 10 6 3 1 5 5 5 3 5 2 4 5 5 4 4 4v3l3 1v3h2l13 26 3 14 1 7 1 4v19l1 5-2 14-4 7-4 10h-2l-2 5-1 2h-2l-2 4-6 9-4 4h-3l-1 4h-3v4l-4 2-1 2h-3v2l-4 4-8 4-6 4-7 3-11 5-10 4-9 3-10 2-16 1-10-1-16-4-16-6-11-6v-2l-10-5-3-2v-2l-4-2-4-4-3-1-14-16-6-10-5-11-3-8-3-5-2-13-1-3-1-5 1-19v-6l1-5v-3h2l1-7 4-7 3-3 3 1-1 5-3 7-2 15v23l4 17 8 19 6 11 10 13 7 7 14 11 19 10 15 5 11 2 18 1 18-2 21-6 16-8 11-7 13-11 10-12 8-14 6-14 3-13 1-19-2-17-6-20-8-16-10-14-12-13-17-12-16-8-16-6-20-5-4-3 2-5z" fill="#040B14"/>
<path transform="translate(1102,282)" d="m0 0 5 2 8 1 1 2 12 4 2 1 7 2v2h2l4 8-1 4h-2l-4 8-5 5-4 2v15l3 6 5 2 2 4 3 3 3 1 4 8v3l4 2-3 3-10 4-14 3-2-1-2 4-5 2h-6l-2-2 1-5 2-5-1-5 1-3-1-3 2-6-4-7-4-9v-7l-5-1-2-12 1-10h2l2-4h5l-2-2 2-3h-2l-1 2-3-2v-14z" fill="#040B14"/>
<path transform="translate(816,534)" d="m0 0h14l9 2 10 6 7 7 6 11 2 9v13l-4 10-6 9-5 5-7 2h-5v-2l-12 2-5-2-2-4 3-1h6l14-7 2-4 5-9v-14l-5-10-3-3-10-4-4-1h-10l-9 6-4 2-6 15 1 8 3 10-1 3-4-1v2l-3 1 1 7-1 3 1 2 2-1v3h-2l1 2v7l-3 9h-2l-2-5-2-11-7-12-1-7 3-3 1-4-1-5v-10l3-3 1-7 8-12 7-8 8-4z" fill="#040A13"/>
<path transform="translate(1297,526)" d="m0 0 6 1 12 7 13 11 12 11 12 13 11 15 9 16 8 17 6 21 3 21v36l-3 22-6 21-8 19-9 15-12 16-7 8h-2l-1 3-8 7-13 10-16 9-6 3-3-1 4-3h2l1-2 5-4h2l1-3 14-10 4-2 2-4 3-4h2l1-4h2l2-4 13-13 4-6 4-5 4-10 5-12 5-16 2-11 1-6 1-8 2-4 1-16v-15l-1-8-3-8v-11h-2l-2-14-4-9-5-11-2-2-2-5-3-4-4-7-5-8v-2h-2l-6-7-8-8-15-14-5-4-5-3-10-5-1-2-12-2v-3z" fill="#040A14"/>
<path transform="translate(1235,607)" d="m0 0h6l16 8 11 8 8 8 8 13 4 10 2 11v14l-3 14-5 12-9 12-4 5h-2v2l-12 9-12 6-9 3-7 1h-14l-14-3-16-8-9-7-8-8-9-14-1-9 7-1 3 4 4 8 9 10 10 8 16 7 9 2h14l13-3 13-7 7-6 8-10 7-14 2-7 1-8v-10l-2-13-7-14-6-7-13-10-14-7z" fill="#FDFDFD"/>
<path transform="translate(867,253)" d="m0 0 7 1v1l9 1v1l-10 1-11 6-5 5-2 4v10l1 4v15l8 2 23 4 27 4 36 8 31 9 21 1-4 2h-2v2l-5 1-1 3h-8l-4 1h-7l-3-2-9-2-17-4-51-5-22-4-10-4-3-3-5-9 1 6h-2l-3-10-1-2-1-9-1-7 1-10 3-6 4-5 7-3 1-3z" fill="#040A14"/>
<path transform="translate(410,601)" d="m0 0 2 4-1 5-4 3-9 8-2 5-4 3-1 3h-2l-2 6-2 2-2 6 1 3h-2l1 6 1 13v5l-3 3h3l-1 3-2-1 3 4 1 5 2 5v5h2l2 5h2l5 6v2l4 2 14 8 10 3 9 4 1 1 9-1v-2l6-3 4-1v-2l5 1v3l8-1 5-1 4-10 3 2v6l2 7 7 2h4v-2l3-1 2-2v4l-12 11-2 1h-10l-2-4v-4h-39l-15-2-15-5-11-6-11-10-9-14-4-12-1-7v-20l4-14 6-10 9-10 11-8 10-5z" fill="#040A14"/>
<path transform="translate(1218,648)" d="m0 0h6l2 2 5 2 10 9 4 5 2 5-1 4h-3v8l4 1v6l-3 5-5 5-4 2-1 2-3 3h-3v2l-9 1-9-1-5-4-3-2v-2h-3l-3-6-3-2v-3l-3 1v-2h2l-1-9 2-7 2 3v5l2-7-1-1 2-6h2l1-2 8-3 3-3h2l1-4 1-2h2z" fill="#040B15"/>
<path transform="translate(766,91)" d="m0 0h11l10 5 12 11 13 16 7 11 5 2 6-1v-3l4 2 8 8 8 13 2 6-4-1v-2l-5-2v-2l-4-2-7-5-9-4v-2l-3-1v-2l-9-3v-2l-4-1-1-4-2-1-6-8-5-5-6-5-3-3h-3l-2-3-7 1-3-1h-3l-1-1-2 1-1 3-4-1-5 1v2l-9 3-10 6-5 1v2l-6 2v2l-10 2v2l-3 2h-3v2l-14 7-5 3h-3v2l-10 5-4 1-2 4-5 2-1 3-6-2-2-1v-2l-6 3v-2l10-7 20-12 22-12 52-28z" fill="#040A13"/>
<path transform="translate(1069,597)" d="m0 0 3 1 1 2-1 16-3 9-2 10-1 4h-2l-1 26 1 6-1 6v12l2 7 4 19 1 5 3 13 8 22v4h2l4 9 7 12 6 7 7 8 15 18 9 6 5 4 4 2-4 1-18-12-14-12-11-12-12-17-8-14-7-16-7-21-4-18-2-18v-24l3-25 4-17 7-18z" fill="#040B14"/>
<path transform="translate(292,275)" d="m0 0 10 1 48 8 30 8 33 10 9 2 8 2h47l11-2 10-2 9 1 3 3-9 2h-12l-15 3-27 2-26-1-16-3-5-3-7-1-14-4-7-1-7-2-1-2h-7-3l-12-2-1-2-3 1h-7l-4 1h-3l1 9h4l3 6 11 8 8 6 2 3-5-2-36-26-13-10-5-5-2-5z" fill="#040A14"/>
<path transform="translate(1e3 199)" d="m0 0h2v2l5 2 5 4 5 3-1 6-10 18-13 23-8 10-4 9-12 10-16 8-3 1h-7l-5-4-5-16-4-10-2-3 1-3 2 2 4 1 4 5 2 1 2 4v3l4 4 3 4 4 1 3-3 7-3 4-3 3-9-1-6-7-12 1-4h-2l-2-9h4l7 10 11 21v-13l12-30 5-14z" fill="#040B14"/>
<path transform="translate(761,256)" d="m0 0h2l4 15 3 13 4 26 3 28 4 13-1 4-3-2-5-12-2-4-25-11-21-10-12-9-2-4 1-1 14-1 1-3-9-3-1-1-11-1v-2h10l25 7 25 5-2-18z" fill="#FDFDFD"/>
<path transform="translate(820,523)" d="m0 0h12l13 4 11 8 7 7 8 16 3 13 7-3 5-2h10l8 4 9 7 7 10 3 8 1 12-2 1-2-9-5-10-6-7-10-6-7-2-8 1-9 5-6 5-5 10-1 3v11l3 5-4-2-2-5v-4l-12 5-2-1 9-8 7-13 1-4v-13l-3-11-6-10-9-8-9-4-6-1h-14l-11 3-11 8-7 10-6 11h-1l1-9 4-10 4-6 7-8 11-7z" fill="#FDFDFD"/>
<path transform="translate(626,660)" d="m0 0 6 1-4 2-7 1h-8v19l-2 18-4 17-8 23-8 16-12 18-13 15-10 10-14 11-14 9-15 8h-3l5-10 2-2 7-3 7-5 4-1v-2l4-1 1-4 6-5 11-11h2l1-4h3l2-5h3l1-5 3-1 2-4 6-7 1-3h2l2-7 5-12 3-5 5-12 3-20 3-17v-14l5-5 2-1 13-1z" fill="#040A14"/>
<path transform="translate(1159,281)" d="m0 0 7 2 14 14 4 1 19 19 7 8 13 14 9 11 12 14 15 20 10 15 6 16 1 4v7l-2 3-16-5-6-1-5-1-1-6 7-1 5-1v-2l2-2-1-10-4-5-2-6-5-4-3-6v-2h-2l-4-5-4-3v-2h-2v-2h-2l-2-4v-2l-8-7-4-5-8-8-5-6v-2h-2l-5-7-2-1v-2l-4-2v-2h-2v-3l-4-1-4-6-4-3-4-4-4-2v-3l-6-3-3-5-3-4z" fill="#040B14"/>
<path transform="translate(800,496)" d="m0 0h11l3 2h-8l-5 1 13 1 1 2-19 2-10 4-9 7-6 12-1 6-1 33 3 9 3 6 3 13 10 20v6l-4 8-4 2-5-8-8-18-1-3v-10l2-10h-9l-2-7v-20l2-19 4-15 5-9 4-5 10-6 11-3z" fill="#FDFDFD"/>
<path transform="translate(941,111)" d="m0 0 10 1 14 1 16 6 11 6 11 9 9 10 11 18 5 13-1 16-3 13-3 3-13-11-10-8-4-4 1-2 2 2 5 1v-2l8-2 1 3 2 1 1-6-1-4-2-7-3-7-3-3-1-5h-2l-3-6v-2h-2v-2h-2l-4-5-2-1v-2h-2v-2h-4v-2l-4-1-14-7-10-3v-2l-9-3-4-2z" fill="#040A14"/>
<path transform="translate(516,338)" d="m0 0 4 2 7 8 8 11 7 7 10 6 14 6 25 7 37 9 27 8 16 7 9 3v1l-10-1-44-7-34-7-26-7-17-8-15-12-9-12-7-15z" fill="#FAFAFA"/>
<path transform="translate(624,714)" d="m0 0 8 1-4 6-5 5v6l3 7v3l5 2 6 4 5 4v2h2l1 4h2v2l5 2 3 1 1 2 6 3 6 1 8-1 1-2 16-5 8-4 10-2 12-1 2-2 8-1 5-1 4-2 14-1 6-3 6-1 7 2h11l2-4 8-1 5-1h7l3 2 7 1-3 2-12 2-40 6-25 5-29 7-25 8-22 7-8-4-9-9-7-8-14-15-13-13-2-5 5-5 8-5z" fill="#040B14"/>
<path transform="translate(1104,192)" d="m0 0 5 1 26 30 11 12 9 10 11 12 3 5-5-2-16-11-19-14-10-7-11-16-1-2 1-2h-3l-1 5-1-3-7-1-3 3-10 5h-2v2l-8 4-4 7-1 3-5 2-5 1-5-2 2-7 9-10 10-7 19-11z" fill="#040A14"/>
<path transform="translate(888,573)" d="m0 0 9 1 9 5 8 7 1 5-6 1v6l3 5-1 4-2 4-4 1-2-3-1-11-3-5h-3l4 5 1 6-3 7-4 3h-7l-5-3-4-7 1-6v-3l-2 3v8l2 8-5-1-3-2-5 1-4-3v-11l4-10 6-7 10-6z" fill="#040B14"/>
<path transform="translate(393,578)" d="m0 0h88l2 2-2 10-1 1 5 2-1 4-1-3-28-1v5l-3 1v-3h-2l-4-4-2-1h-23l-1 3-7 1-3-2-4-2h-25l-10 1 3-9 1-2 7-2z" fill="#040B14"/>
<path transform="translate(1303,849)" d="m0 0h16l57 5 49 3 46 3 23 1 2 2-72 2h-52l-95-1 2-3 12-1 54 1h1 12v-2h-7v-2h-12l-7-1h-23l-7-2v-3z" fill="#081421"/>
<path transform="translate(783,643)" d="m0 0h29l35 4 25 3 14 1h13l20-1 13-1-4 4-9 3-8 1h-44l-34-3-18-1h-33l-20 4-24 9-5 2-4-1 21-12 13-6z" fill="#FDFDFD"/>
<path transform="translate(242,834)" d="m0 0h43l55 1 7 2-4 4v2l-8 2-56-1-64-3-65-4v-1h30v-1z" fill="#091522"/>
<path transform="translate(1211,499)" d="m0 0h20l23 2 21 4 21 7 10 4v3l-9 3-8 2h-6v-3l-2-5-13-3-25-2-4-1h-48l-17 2-3-2 3-5 16-4z" fill="#040B14"/>
<path transform="translate(709,477)" d="m0 0 6 1 9 4 6 2-1 5-21 21-10 7-14 8-12 5-13 4-14 2 4 11 13 18 4 7-5-1-10-9-11-15-5-8-2-7 5-2 17-5 20-7 19-9 14-9 12-11 3-4-14-7z" fill="#FCFCFC"/>
<path transform="translate(519,354)" d="m0 0 5 1 7 11 5 6 13 10 17 8 26 7 25 5 26 5 15 2v2l7 1-4 3h-22l-20-4-10-1v-2h-8l-12-3-14-3-14-5-9-4v-2l-4-1-11-6-7-8-5-5-4-8-2-5z" fill="#040B14"/>
<path transform="translate(203,856)" d="m0 0h9v1h18l14 2 13-1 7 1 7-1 5 1 2-1v2l9-1h58l22 2v1l-28 2-146 1-59-1-1-2 21-2z" fill="#081421"/>
<path transform="translate(282,320)" d="m0 0 15 4 25 5v2l16 4 11 4 1 2h-6-1l-21-3v-2l-10-1-17-4-6-1-7 2h-11l-1 4-6 2-1 4-5 2v6l2 7 3-1 1 4h6v2l-13 3h-7l-2-5-3-16-1-13 1-1 23-1 10-2z" fill="#040A13"/>
<path transform="translate(819,554)" d="m0 0h7l8 3 7 10v10l-4 8-7 4-2 2-9 1-8-5-4-4-2-5v-8l3-7 5-5 3-2h3z" fill="#040A13"/>
<path transform="translate(1026,671)" d="m0 0 3 1 4 18 3 6 6 18 8 16 7 15v5l-9 8-8 5h-32l-7-1v-1l6-1 1-3-2-1 4-1 13 1 7-1 1 1 4-2 9-2-1-4 1-3-1-10-3-3-4-9-5-10-1-4-5-17-1-5-1-10z" fill="#040A14"/>
<path transform="translate(1e3 445)" d="m0 0 5 1 13 8 1 3-15 53-6 19v11l6 16 4 9-1 2-5-2-4-5-7-15-2-5v-11l4-17 3-8 6-19 4-16v-9l-1-7-4-2-1-5z" fill="#040A14"/>
<path transform="translate(503,438)" d="m0 0h9l8 1v1l-8 1 1 7 8 4 12 1 2 2h-2l4 7v5l5 1h12v2l10-1 1-2h10l-1 3 5 2-3 2-13 5-11 3-9-4-17-12-7-5h-14l-6-4-5-8 2-6 4-4z" fill="#040B14"/>
<path transform="translate(417,640)" d="m0 0h6l3 4-5 5-9 7-2 3v9l3 10 4 5 2 1h10l20-2 9-1v2l-11 7-12 6-11 2-10-3-10-9-5-10-1-12 3-9 9-10z" fill="#FDFDFD"/>
<path transform="translate(949,374)" d="m0 0 3 1-30 10-20 5-23 4-10 1h-18l-18-3-13-5-12-7-3-4 18 6 6 1 36 1h15l31-3 26-5z" fill="#FDFDFD"/>
<path transform="translate(963,234)" d="m0 0 3 1 7 10 11 21 1 9-9 8-11 7-12 5h-7l-5-4-5-16-4-10-2-3 1-3 2 2 4 1 4 5 2 1 2 4v3l4 4 3 4 4 1 3-3 7-3 4-3 3-9-1-6-7-12 1-4h-2l-2-9z" fill="#040A14"/>
<path transform="translate(763,508)" d="m0 0h2l1 2 2-1-1 5-5 12-3 16-1 12v20l1 6 9 1-1 10v10l6 15 7 13 5-1 2-1v2l3 1-3 6-1 1h-7l-2-1-1-5-6-9v-2l-3-1v-5l-3-1-4-10-2-10-4-10 1-4-2-2-2-3-2-4 2-27 2-15 4-12z" fill="#040B14"/>
<path transform="translate(775,653)" d="m0 0h38l18 2 44 3h32l-1 4-8 2-19 1h-23l-7-1-4-1-17-1-4 1-22-2-7-1h-12l-11-1v-2l-15 5-6 1 2-4 17-5z" fill="#040A13"/>
<path transform="translate(613,588)" d="m0 0 5 2 5 3 2 3 4 1-3-3v-2l4 2 7 6h8l-2 16h6l4-3 6-3 3 1-10 6 6-2-1 3-3 1 1 4 11 7 27 6 15 3v2l10 2-3 4-5 1-22-5-23-7-2-1v-2l-6-1-13-9-5-5v-2h-2l-1-2-6-3-2-5h-2v-2l-5-2-1-3-5-1-5-3v-2l-2-1 4-1 1-1z" fill="#040B14"/>
<path transform="translate(852,313)" d="m0 0 1 2h2l4 6 11 6 14 3 27 3 57 5-1 2-15 5h-21-3l-13-2-4 1-7-1-17-2-8-3-9-3-5-3v-2l-3-1v-2l-5-1v-2h-2l-3-7z" fill="#040B14"/>
<path transform="translate(647,186)" d="m0 0 2 1-12 7-3 1-1 2-4 2-6 4h-2l-1 5-3 2h-3v2l-13 7-8 6-12 8-10 7-3 3h-2v2h-2v2h-2v2h-2l-1 3h-2l-2 4-3 1-2 4h-2l-2 4h-2l-1 3-5 2-2 4-6 8-3 6-4 2 1-8 7-11 11-13 21-21 13-10 10-7 19-12 24-13z" fill="#040A14"/>
<path transform="translate(906,242)" d="m0 0 8 4 7 8 6 10-1 2-8-3-8 14-11 20-4 6h-8l-2-1v-6l16-32 4-9-5 2-3-1 2-2 3-6 2-3h2z" fill="#040B14"/>
<path transform="translate(1117,317)" d="m0 0 4 1 1 7-4 12-4 11 1 1 4-5 2-6h3l7 14 10 5 4 6-1 4-9 2h-8l-2 5-4 1 1-7 3-1h-4l-3-2-3-5-4-2v-5l-4-7-2-5v-8l7-10z" fill="#F1F2F2"/>
<path transform="translate(1052,450)" d="m0 0 5 1-1 3h2l2 20-5 13-2 8-8 20-2 9-5 12-3 11-3 9-5 9-5 1 1-9 11-34 10-31 7-24 1-4z" fill="#040A14"/>
<path transform="translate(811,383)" d="m0 0 5 1 11 5 16 4 8 1h18l22-3 24-5 7-2 4 1-4 1-1 3-10 4-12 4-7 2-19 3-7 2-17 1v-2h-8l-13-3-7-5-8-8v-3z" fill="#040B14"/>
<path transform="translate(671,618)" d="m0 0 7 1 13 4 28 7 9 2 5 3-1 9h-7l-27-6-29-6-6-3 1-2 6-3z" fill="#F8F8F8"/>
<path transform="translate(1239,426)" d="m0 0 10 3v2l-15 8-12 9-14 15-7 8-11 12-9 11-5 5-4-1 1-6 5-9 3-5 4-2v-2l8-7 1-2h2l3-6h2l1-3h2l2-4h2l2-4h2l1-3 5-2 11-8 1-3 3-2v-2z" fill="#040A13"/>
<path transform="translate(930,84)" d="m0 0 4 2h-3v5h-3l-1-1 1 5-4 4v4l-1 2-13 4-8 7-5 2-1 2-8 6-5 6h-2l-1 4-2 1-1 3h-2l-1 3h-3l-2 4-5 5-3-1-1 2 1-5 10-16 11-12 8-8 17-12 15-10 5-5z" fill="#040A14"/>
<path transform="translate(909,457)" d="m0 0 2 1-11 10-12 9-11 9-4 4h-2l-2 4-4 7v8l10 13 39 39-1 2-20-18-14-12-14-11-7-7-2-5 1-10 4-8 9-10 11-8z" fill="#FDFDFD"/>
<path transform="translate(1125,614)" d="m0 0h1l1 5h1l2 17-5 3 1 2 6-3 1-11 3-9h2v-4h2l3 6-1 7 3 4-1 6 1 3 2 1-4 4h-6v6l-8 9-6-2-5-4-1-4 4-7 1-1v-8l-4 2-3-1 1-5 5-9 2-5h2z" fill="#040B14"/>
<path transform="translate(419,373)" d="m0 0 4 2 12 12 20 15 5 4 1 4-3 1-38-7-3-3-5-1v-2h-2l-3-4h10l8-1-1-8h-2l-4-8z" fill="#040B14"/>
<path transform="translate(401,649)" d="m0 0 3 1-2 5-3 9 1 12 5 10 9 8 10 3 11-2 12-6 2 1-1 5-5 3-4 4-7 1-8 1-8-2-9-3-6-5-4-4v-3h-3l-4-7-1-5v-4l1-8 2-5 1-5 2-3h5z" fill="#040B14"/>
<path transform="translate(424,646)" d="m0 0h2l-1 5-1 3 1 4-1 2h2v2l-3 2v5l4 2 7-2 1 3 2 1 1 4 6-1 1 4 13-1v1h-5v2l-4 1-20 2h-10l-6-5-3-8-1-4v-9l6-7z" fill="#040B14"/>
<path transform="translate(988,183)" d="m0 0 4 2 4 4-2 9-11 27-7 16-2 2-7-8-6-8 8-3 2-3h2l2-5 3-6 2-9h2v-7l3-9z" fill="#040A14"/>
<path transform="translate(908,460)" d="m0 0h3v2l-3 1-2 3h-2l-1 3-7 5h-2l-2 6-6 5-3 5-5 7-3 5 1 11 4 7 4 4 5 6 1 5 4 2v2l4 2v2h2v3l3 1 5 5v2l3 1 4 5h-3l-40-40-8-11v-8l4-7 12-12 17-13z" fill="#040B14"/>
<path transform="translate(524,343)" d="m0 0h3l4 6v3l11 3 2 3 7 4 9 6 21 7 3 2 20 4 10 5-1 2h-14l-30-8-15-6-9-5-10-9-8-10-3-5z" fill="#040B14"/>
<path transform="translate(1100,284)" d="m0 0 6 1 20 8 6 3 3 3v11l-7 9-4 1-5-8-6-4-4-8-7-5-1-5z" fill="#FDFDFD"/>
<path transform="translate(726,493)" d="m0 0 1 4-7 8-13 11-2 2-2 1v2h-2v2l-6 3-12 4-12 5-9 4-5 5-1 3 3 1-1 5h2l2 5v4l2 2 2 4h-3l-10-14-7-11-1-7 21-5 16-6 13-7 14-10 5-3h2l2-4z" fill="#040B15"/>
<path transform="translate(724,534)" d="m0 0h2l1 60 1 8-3-3-8-11-9-13-6-12-4-13 1-2 12 24h4l1-3 2-29 2-3 2 6 1 11z" fill="#FDFDFD"/>
<path transform="translate(854,313)" d="m0 0 7 5 13 4 17 3 51 5 17 4 8 3v1h-11l-65-6-17-3-10-4-7-5-3-5z" fill="#FDFDFD"/>
<path transform="translate(707,478)" d="m0 0 6 1 7 4 4 2-7 8-10 9-19 11-18 8-12 4h-5l2-2h3l1-2h5l1-2v-2l3-3 13-4h2l1-4 14-7 7-11h2z" fill="#040B14"/>
<path transform="translate(993,638)" d="m0 0h3v4h2v17l-1 26-1 1h-7l-5-3-3-6 3-11 2-12 3-12z" fill="#040A13"/>
<path transform="translate(1e3 638)" d="m0 0h11l3 5 1 10-1 2-1 15v10l-5 9-4 4-3 1h-10l-9-1-1-4-4-3v-3l5 2 10 6h7l2-1 1-4 2-31v-15h-4z" fill="#040B14"/>
<path transform="translate(760,257)" d="m0 0 2 1 3 40v5l-12-1-24-6-14-4-10-1v-1h12v-2h9l12 3 5 2 7-3 8-1-1-24 1-3h2z" fill="#050C16"/>
<path transform="translate(997,639)" d="m0 0 9 1 1 2v13l-2 31-2 5-2 1h-7l-14-9 1-3 5 4 3 1h7l1-26z" fill="#FDFDFD"/>
<path transform="translate(470,298)" d="m0 0h18l16 2v3h-9l-11 3-7 1h-47v-2l-5-1v-1l-12-3v-1h47z" fill="#0A1623"/>
<path transform="translate(1095,284)" d="m0 0 5 1 1 13h3 2v4l1 2h-6l-2 3h-2v13l2 9h5v8l1 1v5l-1 5-1 2v2l-1 3-2-3-2-7h-2l-2-9h2l-3-6-1-13-2-1 1-10 1-7v-7l2-7z" fill="#040A13"/>
<path transform="translate(826,410)" d="m0 0h1l-1 11-5 12-7 9-11 8-18 7-18 5-6 1 4-3 20-9 15-10 12-10 9-12z" fill="#FDFDFD"/>
<path transform="translate(997,370)" d="m0 0 6 1 5 5 2 4-1 7-5 8-2 1h-10l-5-4-1-2v-8l7-9z" fill="#FDFDFD"/>
<path transform="translate(1157,634)" d="m0 0 9 2v2l4 2-1 7-3 1-2 14v11l-1 7-3 3-11 2-2-4 5-7 1-10 1-6 5-3 1-2-1-11z" fill="#FBFBFB"/>
<path transform="translate(712,310)" d="m0 0 6 2 5 2 19 10 19 8 5 2 1 5h3l2 5 3 5-6-2-8-3v-2l-12-6-9-4-13-7-6-5-8-5z" fill="#040A13"/>
<path transform="translate(345,836)" d="m0 0 2 2-4 3v2l-8 2-56-1-20-1-1-1-11-1 1-2h7l8-1h1 29l3 1 10-1h34v-1z" fill="#040B14"/>
<path transform="translate(643,684)" d="m0 0h8l-1 6 6 2 4 3-7 4-17 6h-3l-1 3-4-2-2-6 1-7 8-7 4-1z" fill="#040B14"/>
<path transform="translate(531,679)" d="m0 0h8l-2 15-4 12-3 4h-7l-6 1-1 3-9 3 6-8 12-18z" fill="#FDFDFD"/>
<path transform="translate(809,375)" d="m0 0h11l5 2 9 1 2 1v-2l7-1 13-1 11 1 10 1h3l5 2v1h-10l-7 2 5 1v1h-44l-13-3v-2l-4-1v-2z" fill="#040A13"/>
<path transform="translate(763,508)" d="m0 0h2l1 2 2-1-1 5-5 12-2 9-2 6h-2v38l-4-2-3-7 2-27 2-15 4-12z" fill="#040A13"/>
<path transform="translate(477,711)" d="m0 0 3 2v6l2 7 7 2h4v-2l3-1 2-2v4l-12 11-2 1h-10l-2-4v-4l-14-1v-2h-2v-2l8-2 4-2 5-1z" fill="#040A14"/>
<path transform="translate(1008,306)" d="m0 0h7l4 1-1 3-2 1 3 4v8l-4 1-9-2-5-1-11 1-4-5 1-4 12-5z" fill="#040B14"/>
<path transform="translate(1197,674)" d="m0 0 5 2 9 11 7 6h6l11-7h6l-1 5-8 7-5 2h-11l-10-5-7-7-3-7v-6z" fill="#FDFDFD"/>
<path transform="translate(1040,235)" d="m0 0 12 1 18 8v2l-3 1 1 2-8-1-2-1v2l-7 1-2 5h-5-4l-3-7v-8z" fill="#040B14"/>
<path transform="translate(1110,356)" d="m0 0 3 1v2l4 2 3 5 5-1v2l-3 3v4l3-1 2-4 12-2h8l1 3-10 4-14 3-2-1-2 4-5 2h-6l-2-2 1-5 2-5-1-5 1-3-1-3z" fill="#0A1622"/>
<path transform="translate(535,457)" d="m0 0h24l10 5 14-1 2 1h8l-1 2-38 4-16 1-2-3z" fill="#FDFDFD"/>
<path transform="translate(828,409)" d="m0 0 3 1 2 8-1 10-5 4-4 8h-2l-1 3h-3l-2 4-5 5-5 1v2l-4 2-9 2h-5l1-4 15-6 8-6 3-1 2-4 6-9 4-13z" fill="#040B14"/>
<path transform="translate(1054,607)" d="m0 0 3 1-1 5-7 14-4 12-3 2-2 3h-6v-11l2-2 3-9 4-4 1-3h2v-2l6-4h2z" fill="#040A14"/>
<path transform="translate(1322,839)" d="m0 0h37l8 1 1 1 9 1-3 2-40 1h-33l2-4 4-1z" fill="#040A13"/>
<path transform="translate(773,281)" d="m0 0 5 3 3 10 1 13 2 12v13l-2 5h-2l-3-9-1-16-1-2h-2v-19l-1-9z" fill="#040A13"/>
<path transform="translate(820,413)" d="m0 0 3 1-1 5-7 9-6 7-13 10-14 7-4-1 5-5 2-1 4-3h2v-2l4-3 3-3h2v-2h2l2-4 2-3h2l3-6h2l1-2v2l5-5z" fill="#040B14"/>
<path transform="translate(455,593)" d="m0 0h23l5 1 1 2v6l-9 7-6-1-5-4-7-3-2-4z" fill="#FDFDFD"/>
<path transform="translate(1068,293)" d="m0 0h2l1 5 2 1-9 3-8 4-4 4-7 4-7 5-4 5-6-1v-5l5-5 16-9 6-7 3-2z" fill="#040B15"/>
<path transform="translate(1120,232)" d="m0 0 7 6 25 25 4 5-1 2-2-2h-3l-6-3-11-8-7-9-8-10z" fill="#040B14"/>
<path transform="translate(529,678)" d="m0 0h2l-3 9-7 12-10 14-5 4-2-1 2-3 2-10 4-8 1-5h2v-3l2-2 5-4z" fill="#040B14"/>
<path transform="translate(1054,354)" d="m0 0 1 4-8 13-5 5-5 6-9 7-4-1-8-7-6-9-6-4-6-1-15 8h-7l1-2 16-7 6-2 7 1 6 4 7 8 5 7 4 1 13-13 12-17z" fill="#FDFDFD"/>
<path transform="translate(521,620)" d="m0 0h5l4 9v4l-2 1-12 1-4 2 1 2-4 4-5-1-1-3 3-7 4-5z" fill="#FDFDFD"/>
<path transform="translate(599,501)" d="m0 0v3l-8 7-4 1-2 4-4 1-2 4-9 11-3 1-3-3 1-6 4-6 7-6 19-10z" fill="#040B14"/>
<path transform="translate(830,132)" d="m0 0 4 2 8 8 8 13 2 6-4-1v-2l-5-2v-2l-4-2-7-5-9-4v-2l-3-1 4-4 6-1z" fill="#040A14"/>
<path transform="translate(628,592)" d="m0 0 6 1 16 6 5 3 8 5v2l-13 7-5 1-2-1 2-16-8 1-8-7z" fill="#FDFDFD"/>
<path transform="translate(888,591)" d="m0 0 7 1 5 6 1 6-3 7-5 1-4-2-3-1 1-5-3 1v-2h-2l-2-4 6-7z" fill="#040B14"/>
<path transform="translate(683,426)" d="m0 0 2 1-10 9-11 9-9 9-7 8-7 6-3 1 1-6 10-12 8-7 11-9z" fill="#FDFDFD"/>
<path transform="translate(627,588)" d="m0 0 2 1 3 1 10 1 4 2 11 1 8 4 5 2h8l4 1v2l7 2v2l-11-1-1-1-11-2-10-3-10-1-18-7-4-1v-2z" fill="#040B14"/>
<path transform="translate(583,574)" d="m0 0 14 2-2 5-5 3-3 1 1 4-6 1-5-5-8-5v-4l12-1 2 1z" fill="#040A13"/>
<path transform="translate(435,379)" d="m0 0 7 2 7 6 7 4 3 3 11 4v2l6 1 5 5 8 4 4 5 3 3-6-2-29-17-25-17z" fill="#040B15"/>
<path transform="translate(1107,305)" d="m0 0 5 2 2 3-1 5-8 12-3 3-4-1-1-8 2-5 5-5 2-5z" fill="#FDFDFD"/>
<path transform="translate(1044,260)" d="m0 0 4 5 2-5 6 1v2h2l3 6 11 1 7 4-1 2-10 1-8-4h-3l-1 2-4-2-5-5-3-5z" fill="#040A14"/>
<path transform="translate(356,382)" d="m0 0 10 1 1 4v6l-2 3-8-1-8-4v-2l-4-1 4-3z" fill="#040A14"/>
<path transform="translate(1226,650)" d="m0 0 5 2 10 9 4 5 2 5-1 4-5-1-10-11-4-6z" fill="#FDFDFD"/>
<path transform="translate(930,372)" d="m0 0 7 1 6-1h5l-1 2-19 3h-8l-4 2h-5l-3-1-6 2h-12v-4h5l12-3h17 4z" fill="#040A13"/>
<path transform="translate(716,538)" d="m0 0h1v31l-2 4-5-1-5-10v-4l5-1 4-5 1-11z" fill="#040A13"/>
<path transform="translate(943,752)" d="m0 0 38 1 6 4-4 2h-17l-17-3-5-1-2-2z" fill="#040A13"/>
<path transform="translate(633,529)" d="m0 0h6l-1 2-4 1 3 9 8 12v4l-9-2-4-6-2-4v-12z" fill="#040B15"/>
<path transform="translate(653,599)" d="m0 0 9 2 7 2 8 1 1 1 9 1v1l-13 1-4 2-3 2h-3l-2 4-5 1h-2l-4 1 4-4 6-3v-2h2v-2l-5-2-5-4z" fill="#07121E"/>
<path transform="translate(1235,639)" d="m0 0 2 4-1 7 2 3 6 2 4 2 2 3-1 4-3 3-12-12-6-4v-3l4-1v-6z" fill="#040B15"/>
<path transform="translate(1138,592)" d="m0 0 5 4 9 9 5 9v3l-5-2-2-2-8-1-1-9-4-10z" fill="#FDFDFD"/>
<path transform="translate(796,543)" d="m0 0 2 1-7 8-5 8-2 9-3 1 1 10-1 4 2 1-1 4-1 3h-2l-2 2-2-8 1-7h1l1-13 2-4 1 3 8-14z" fill="#081421"/>
<path transform="translate(1131,611)" d="m0 0 5 1 1 1-1 7-2 7-1 11-8 4v-4l4-2-1-16z" fill="#FDFDFD"/>
<path transform="translate(897,591)" d="m0 0 5 4 1 3v10l-5 7-4 2h-7l-5-3-5-6-1-2v-8l4-4 1 3-2 4 1 5 3 5 4 2h7l5-5 1-6-3-7-2-3z" fill="#FDFDFD"/>
<path transform="translate(1141,593)" d="m0 0 4 1v2l7 1 5 4 1 1 3-3h4v3h2l-1 5-7-2-1 8-3-1-6-9-6-5z" fill="#040B14"/>
<path transform="translate(1100,288)" d="m0 0 3 4v3l6 4 3 5 2 6-5-4-3 1-3 7-4 2-1 5-2-1 1-13h2l2-4h5l-2-2 2-3h-2l-1 2-3-2z" fill="#081420"/>
<path transform="translate(887,587)" d="m0 0m-3 1 9 2v1l-7 1-2 4-3 4 1 3 5 1-1 5 8 1 3 2-3 2h-7l-5-3-4-7 1-6v-3l-1-2h2l1-4z" fill="#081420"/>
<path transform="translate(1218,665)" d="m0 0 6 1 3 5v6l-5 3-7-3-2-2v-7z" fill="#FDFDFD"/>
<path transform="translate(1138,373)" d="m0 0 3 1-4 1v2l-7 3h-5l-2 4-8 4-7-1-2-4 1-2h11l1-2 3-3 11-2z" fill="#040A13"/>
<path transform="translate(1124,338)" d="m0 0 4 1 2 5 5 2 2 4 3 3 3 1 4 8v3l4 2-2 2-5-2-1-6-5-5-7-3-5-9z" fill="#050C16"/>
<path transform="translate(567,578)" d="m0 0 12 7 3 4 5-1-1-4 7-2 4 1-4 8-2 1h-9l-10-6-5-6z" fill="#FDFDFD"/>
<path transform="translate(1017,371)" d="m0 0 9 4 2 2 6-3 1 5-4 4h-2l-1 3-5-2-7-9z" fill="#040B14"/>
<path transform="translate(939,318)" d="m0 0 11 2 31 9 7 1v1l-8 1-16-4-14-4-9-2-5-2z" fill="#091522"/>
<path transform="translate(1137,596)" d="m0 0 3 3 1 7-2 1-2 4h-6l-3 1-1-7 5-6z" fill="#040A13"/>
<path transform="translate(680,431)" d="m0 0 2 1-5 6-4 2-7 9-5 6-4 1v2l-3 1-1-3 7-8 7-7z" fill="#050D17"/>
<path transform="translate(1107,359)" d="m0 0 3 1 1 3-1 3 1 4-2 5h-3l-1 3h-2l-2-7v-10l1 2h2v-2z" fill="#040A13"/>
<path transform="translate(475,707)" d="m0 0h2v6l-4 9-11 2-2-1 2-4 8-7z" fill="#FDFDFD"/>
<path transform="translate(1152,661)" d="m0 0 2 4-1 9-5 8 1 3-4-1-4-2h-3l-2 2-4-2 2-5 4-1 4 2 2-1 1 2 4-2 1-7z" fill="#081421"/>
<path transform="translate(1139,367)" d="m0 0h8l1 3-10 4-14 3 2-6 1-2z" fill="#38424C"/>
<path transform="translate(474,719)" d="m0 0 1 4-2 4 1 2-1 6-1-4-14-1v-2h-2v-2l8-2 4-2 5-1z" fill="#081320"/>
<path transform="translate(822,736)" d="m0 0h8l7 2v2l10 1v1l-5 1h-23l4-1-1-2-3-2h3z" fill="#040B14"/>
<path transform="translate(815,637)" d="m0 0 18 1 2 3h-2l-2 3h-10l-4-2 3-2-4-1v4l-4-1-6-2v-1h7z" fill="#040A13"/>
<path transform="translate(1125,614)" d="m0 0h1l1 5h1v5h-2v4l-5 1-2 7-4-1 1-5 5-9 2-5h2z" fill="#040A13"/>
<path transform="translate(664,612)" d="m0 0h6l-1 4-5 4-3 6-4-1-4-3 1-4 8-3z" fill="#FDFDFD"/>
<path transform="translate(709,578)" d="m0 0h2l8 11 4 5v4l-4-1v-3l-4-1-1-3-4-2-2-4v-5z" fill="#060E19"/>
<path transform="translate(793,494)" d="m0 0h9v2l-13 3-11 4-7 2 2-4 4-3h2l1-2 3-1h8z" fill="#050C16"/>
<path transform="translate(988,371)" d="m0 0 2 1-4 3h-2v6h2l-1 6-3 3-4-6-3-9 10-2z" fill="#040B14"/>
<path transform="translate(775,517)" d="m0 0 1 2-3 13-3 15h2v9l-3 3v-26l2-9z" fill="#091522"/>
<path transform="translate(521,615)" d="m0 0 5 2v2h-5v2l-11 7-4 5h-2l2-5 5-5 1-4 3-3z" fill="#040B14"/>
<path transform="translate(1105,341)" d="m0 0 2 3 4 8v4l-1 3-5 2 1-7h-2l-1 2-2-6 2-2 1-5z" fill="#081320"/>
<path transform="translate(1115,315)" d="m0 0 2 1-2 4-9 13-1 5-2-1v-9l7-10z" fill="#07121E"/>
<path transform="translate(1126,624)" d="m0 0h2l2 8-1 5-4 2-1 4h-3l1-1v-8l-3-1 2-4 5-1z" fill="#08131F"/>
<path transform="translate(998,366)" d="m0 0 6 1 6 4-1 3v-2l-4-2-7-1-5 5-6 8-3-1v-6l5-3 3-3z" fill="#07121E"/>
<path transform="translate(247,643)" d="m0 0 2 1v29h-1l-1 7h-1v-28z" fill="#091522"/>
<path transform="translate(876,307)" d="m0 0 11 1 27 4 10 2-1 2-22-3-25-5z" fill="#091522"/>
<path transform="translate(1149,245)" d="m0 0 5 1 12 11 3 5-5-2-10-7-5-7z" fill="#081421"/>
<path transform="translate(1165,590)" d="m0 0h5l1 2v10l-4 1-2-1-2-10z" fill="#FDFDFD"/>
<path transform="translate(374,386)" d="m0 0 8 1 5 2 5 1v2l-3 1-2 2-11-3z" fill="#040A13"/>
<path transform="translate(426,661)" d="m0 0 5 2 1 1v5l-5 3-5-3v-5z" fill="#FDFDFD"/>
<path transform="translate(797,512)" d="m0 0 6 2-3 1-2 5-2 3-6 1-2-3 1-2h2l1-4z" fill="#081421"/>
<path transform="translate(455,602)" d="m0 0 9 1 7 5v2h-8l-7-4-2-3z" fill="#040B14"/>
<path transform="translate(1226,634)" d="m0 0h5l2 3-1 5h-9l-1-5z" fill="#FDFDFD"/>
<path transform="translate(247,341)" d="m0 0 3 4 2 16v3h5v1h-7l-2-5-2-16z" fill="#091522"/>
<path transform="translate(1211,604)" d="m0 0h6l1 2v7l-7 1-1-2v-7z" fill="#FDFDFD"/>
<path transform="translate(608,585)" d="m0 0 5 1 15 5-2 1v2l3 1v2l-5-1-2-3-9-5 2 4-4-1z" fill="#FDFDFD"/>
<path transform="translate(541,474)" d="m0 0 5 2 5-1h4v2l3 1 1 2-7 2-9-4-3-3z" fill="#091522"/>
<path transform="translate(435,379)" d="m0 0 7 2 7 6 7 4 2 5-9-5-14-10z" fill="#050C17"/>
<path transform="translate(271,360)" d="m0 0 5 1 2 1v2l3 1-2 5-4 1-4-3z" fill="#040A13"/>
<path transform="translate(1119,330)" d="m0 0 3 4v2h2l-1 2-2 1-2 7-3 1-2 4-1-3 5-13z" fill="#081320"/>
<path transform="translate(758,536)" d="m0 0h1l-1 18v25h-2l-1-35 1-3h2z" fill="#091522"/>
<path transform="translate(1256,432)" d="m0 0h7l-3 3-20 5-4-1 15-6z" fill="#081421"/>
<path transform="translate(1111,369)" d="m0 0 2 2-1 6h2l3 1v3l-2 1h-6l-2-2 1-5z" fill="#FDFDFD"/>
<path transform="translate(1221,412)" d="m0 0 9 2 7 3 10 2 3 2-6 1-15-5-8-4z" fill="#EDEEEF"/>
<path transform="translate(1020,321)" d="m0 0 8 5 1 2 3 1v2l3 1h-8l-5-3-2-3z" fill="#040B14"/>
<path transform="translate(939,318)" d="m0 0 11 2 8 2-1 3-14-2-7-3z" fill="#081320"/>
<path transform="translate(1258,596)" d="m0 0 6 2 12 8 8 7-2 2-12-10-12-7z" fill="#081420"/>
<path transform="translate(282,320)" d="m0 0 15 4 5 1-1 2-21-1z" fill="#091522"/>
<path transform="translate(1102,282)" d="m0 0 5 2 8 1 1 2 12 4 2 1 2 4-16-6-12-5z" fill="#050C17"/>
<path transform="translate(614,388)" d="m0 0h6l5 2 6 2 2 3-9-1-12-3-1-2z" fill="#060F1A"/>
<path transform="translate(979,683)" d="m0 0 5 2 10 6-1 2h-9l-1-4-4-3z" fill="#050C16"/>
<path transform="translate(536,462)" d="m0 0 1 4 3 6-1 2-4-2-6-4v-2z" fill="#091522"/>
<path transform="translate(571,586)" d="m0 0 4 1 12 6v2h-8l-7-5z" fill="#040B15"/>
<path transform="translate(1e3 199)" d="m0 0h2v2l5 2-1 2h-2v2h-2l-2 9-2 1v-8z" fill="#081421"/>
<path transform="translate(584,581)" d="m0 0 3 1 1 7-6 1-5-6 5-2 2 1z" fill="#232D39"/>
<path transform="translate(908,460)" d="m0 0h3v2l-3 1-2 3h-2l-1 3-7 5h-2v2h-2l1-4 14-11z" fill="#050D17"/>
<path transform="translate(746,662)" d="m0 0h4l-2 4-8 3h-7v-2z" fill="#050C16"/>
<path transform="translate(1165,659)" d="m0 0 2 1v2h2l-1 8-4 2-1-2v-8z" fill="#050D17"/>
<path transform="translate(1159,642)" d="m0 0h1l1 11-4 4-3 1v-2h2v-12z" fill="#081421"/>
<path transform="translate(989,394)" d="m0 0 3 1h10l3-1 1 4h-2l-1 2-14-2-3-3z" fill="#050C16"/>
<path transform="translate(1114,309)" d="m0 0 5 2 4 6-3 1-5-2-4 2z" fill="#050E18"/>
<path transform="translate(887,587)" d="m0 0m-3 1 9 2v1l-9 3-4 2-2-1v-2h2l1-4z" fill="#5B636C"/>
<path transform="translate(796,503)" d="m0 0h7v1h-5l1 1 6-1 4 4-4 1-8-1-4 1 1-3h3z" fill="#081421"/>
<path transform="translate(800,568)" d="m0 0h1l2 13 3 5 1 4-5-4-3-8v-8z" fill="#FDFDFD"/>
<path transform="translate(633,662)" d="m0 0 3 1 2 6 3 5 3 3-3 1-7-8-1-2z" fill="#050C16"/>
<path transform="translate(765,258)" d="m0 0 4 1 2 11h-3l-1-3h-2z" fill="#040B15"/>
<path transform="translate(996,660)" d="m0 0h1v25l-1 1h-7l6-6z" fill="#091522"/>
<path transform="translate(252,619)" d="m0 0 2 2-1 9-3 8v5l-2-1 1-10z" fill="#091522"/>
<path transform="translate(483,602)" d="m0 0 2 1-1 5-5 4-5-2 5-5z" fill="#040B14"/>
<path transform="translate(412,592)" d="m0 0 1 3 4 1-1 6-3 1-3-2z" fill="#07101C"/>
<path transform="translate(1124,672)" d="m0 0 1 4-2 4v15l-2 2-1-4v-12z" fill="#091522"/>
<path transform="translate(1141,603)" d="m0 0h1l-1 11h-3l-1 4-2-6-4-2h6l2-5z" fill="#08131F"/>
<path transform="translate(789,442)" d="m0 0 2 2-2 2v3l-7 3-4-1 5-5 2-1z" fill="#040A13"/>
<path transform="translate(716,588)" d="m0 0 4 2 3 4v4l-4-1v-3l-4-1v-4z" fill="#040B15"/>
<path transform="translate(1166,282)" d="m0 0 4 2 12 12-2 2-14-14z" fill="#07121E"/>
<path transform="translate(991,240)" d="m0 0 1 4-3 7-3 4v7l-2-2v-7l2-5 3-3z" fill="#081421"/>
<path transform="translate(830,132)" d="m0 0 4 2 3 4h-3l-3-1-5 2h-4v-2l5-2h3z" fill="#07121E"/>
<path transform="translate(1235,605)" d="m0 0 5 1-4 2 2 8 9 4-3 1-8-4-2-3v-8z" fill="#081421"/>
<path transform="translate(888,587)" d="m0 0h6l6 4 2 4-5-3h-4v-2l-6-1z" fill="#14202C"/>
<path transform="translate(836,380)" d="m0 0 1 2h5v2h-13l-6-1 3-2h9z" fill="#081421"/>
<path transform="translate(732,567)" d="m0 0 2 3v4l-1 7-2 1-2-5 2-9z" fill="#040A13"/>
<path transform="translate(679,424)" d="m0 0h5l-2 4-6 3-4-1z" fill="#050D17"/>
<path transform="translate(900,546)" d="m0 0 3 1 5 5v2l3 1 4 5h-3l-12-12z" fill="#050E18"/>
<path transform="translate(930,84)" d="m0 0 4 2h-3v5h-3l-5 1 4-7z" fill="#050D18"/>
<path transform="translate(613,588)" d="m0 0 5 2 5 3-1 3-10-3 2-2z" fill="#232E39"/>
<path transform="translate(818,553)" d="m0 0h10l9 4v2h2l-1 2-8-5-4-1h-11z" fill="#FDFDFD"/>
<path transform="translate(1018,384)" d="m0 0 5 2 4 4v2l-5-1-5-4z" fill="#040B15"/>
<path transform="translate(245,330)" d="m0 0h21v1l-15 1-3 1-2 3-2-5z" fill="#081421"/>
<path transform="translate(863,569)" d="m0 0h1v13l-4 10-2 1 3-11 1-1z" fill="#091522"/>
<path transform="translate(338,314)" d="m0 0 11 7 4 5-5-2-10-7z" fill="#050C16"/>
<path transform="translate(1070,283)" d="m0 0 4 1 3 6-1 3-6-3z" fill="#040B15"/>
<path transform="translate(528,633)" d="m0 0 4 1-2 2-8 1h-6l1-2z" fill="#040B14"/>
<path transform="translate(762,656)" d="m0 0 3 1-4 2-1 2-9 2 2-4z" fill="#060E19"/>
<path transform="translate(716,562)" d="m0 0h1v7l-2 4-5-1v-4h6z" fill="#081421"/>
<path transform="translate(1109,352)" d="m0 0 3 1-2 6-5 2 1-6z" fill="#07121D"/>
<path transform="translate(647,186)" d="m0 0 2 1-12 7-3 1-1 2-4-2z" fill="#050D17"/>
<path transform="translate(681,624)" d="m0 0h5v5l-9 1z" fill="#091522"/>
<path transform="translate(685,619)" d="m0 0 9 1 3 2v2h-6v-2l-5-1z" fill="#040B14"/>
<path transform="translate(626,592)" d="m0 0 4 2 5 6-2 1-8-3 4-1-3-3z" fill="#1F2A36"/>
<path transform="translate(576,579)" d="m0 0 7 1-1 3-7 1-2-4z" fill="#08131F"/>
<path transform="translate(1264,576)" d="m0 0 6 2 7 5-1 2-14-7z" fill="#050D17"/>
<path transform="translate(1221,412)" d="m0 0 9 2 6 2 1 3-5-1-11-5z" fill="#FDFDFD"/>
<path transform="translate(854,595)" d="m0 0h3l-2 5-6 6-2-1 3-3 3-6z" fill="#091522"/>
<path transform="translate(614,388)" d="m0 0h6l4 4-12-1-1-2z" fill="#040B15"/>
<path transform="translate(1101,303)" d="m0 0 5 1-4 5-4 1 1-5z" fill="#FDFDFD"/>
<path transform="translate(771,287)" d="m0 0h2l1 10-1 5h-1l-2-12z" fill="#08131F"/>
<path transform="translate(778,640)" d="m0 0 4 1 4-1-1 3-2 1h-9z" fill="#040B15"/>
<path transform="translate(817,421)" d="m0 0 2 2-7 9-2-1 2-5z" fill="#081421"/>
<path transform="translate(921,258)" d="m0 0 4 2 2 6-4-1v-2l-4-2v-2z" fill="#081421"/>
<path transform="translate(1140,254)" d="m0 0 4 1 8 8-2 3-6-8z" fill="#07101C"/>
<path transform="translate(513,638)" d="m0 0 4 1-2 1-2 5h-4v-3z" fill="#040B15"/>
<path transform="translate(651,605)" d="m0 0 3 1-4 6-4-1 3-5z" fill="#08131F"/>
<path transform="translate(721,628)" d="m0 0 9 2 1 2-12-1-1-2z" fill="#050C16"/>
<path transform="translate(659,612)" d="m0 0h2l1 4-5 1h-2l-4 1 4-4z" fill="#091522"/>
<path transform="translate(1026,380)" d="m0 0h7l-2 3h-2l-1 3-4-2z" fill="#091522"/>
<path transform="translate(1144,367)" d="m0 0 4 1v2l-10 3 1-3z" fill="#FDFDFD"/>
<path transform="translate(629,702)" d="m0 0 10 1-3 2h-3l-1 3-3-1z" fill="#091522"/>
<path transform="translate(720,484)" d="m0 0 4 1-5 6-2-1 1-5z" fill="#091522"/>
<path transform="translate(527,362)" d="m0 0 5 5 4 5-1 2-5-5-4-6z" fill="#081421"/>
</svg>
